<svg width="180" height="42" viewBox="0 0 180 42" fill="none" xmlns="http://www.w3.org/2000/svg">
    <g clipPath="url(#clip0_123_1257)">
        <path
            d="M44.6982 31.1796V3.60327H60.997V7.06073H48.0732V15.5394H59.6801V18.9966H48.0732V27.6399H61.9025V31.0971H44.6982V31.1796Z"
            fill="white" />
        <path
            d="M79.0248 31.1797L73.4271 23.8535L67.8297 31.1797H63.8783L71.534 21.384L63.4668 11.2588H67.9119L73.4271 18.832L79.0248 11.2588H83.3877L75.732 21.384L82.9759 31.1797H79.0248Z"
            fill="white" />
        <path
            d="M88.4082 28.2162V41.7986H85.0332V21.4662C85.0332 16.2803 88.9843 10.7651 95.1582 10.7651C101.414 10.7651 106.106 14.7163 106.106 21.2194C106.106 27.5576 101.332 31.9205 95.8989 31.9205C93.2648 31.9205 89.7251 30.7682 88.4082 28.2162ZM102.567 21.2194C102.567 16.7743 99.6857 14.1401 94.582 14.387C92.1125 14.4694 88.3257 16.2803 88.655 22.6188C88.7375 24.6766 90.8777 28.5455 95.5696 28.5455C99.6032 28.5455 102.567 26.2406 102.567 21.2194Z"
            fill="white" />
        <path
            d="M108.988 31.2617V11.2587H112.363V13.3992C114.01 11.5058 116.562 10.8472 119.278 10.8472V14.4693C118.866 14.3868 114.833 13.8928 112.363 19.1612V31.2617H108.988Z"
            fill="white" />
        <path
            d="M120.183 21.2194C120.183 15.4571 124.298 10.7651 129.979 10.7651C137.058 10.7651 139.692 15.4571 139.692 21.4662V23.1125H123.887C124.134 26.8992 127.509 28.8748 130.637 28.7923C132.942 28.7102 134.506 28.0515 136.152 26.4053L138.375 28.7102C136.317 30.6857 133.683 32.003 130.472 32.003C124.463 31.9205 120.183 27.4754 120.183 21.2194ZM129.731 14.1401C126.521 14.1401 124.052 16.939 123.887 19.9846H136.152C136.152 17.0211 134.012 14.1401 129.731 14.1401Z"
            fill="white" />
        <path
            d="M141.421 28.3808L143.89 26.1583C143.808 26.1583 145.125 27.4753 145.29 27.5575C145.866 28.0514 146.442 28.3808 147.183 28.5454C149.323 29.1216 153.192 28.9569 153.521 25.9937C153.686 24.3471 152.451 23.4417 151.052 22.8656C149.241 22.2069 147.265 21.9601 145.454 21.1368C143.396 20.2314 142.08 18.6673 142.08 16.3624C142.08 10.3533 150.64 9.36563 154.509 12.1645C154.674 12.3288 156.567 14.0576 156.485 14.0576L154.015 16.0331C152.781 14.5515 151.628 13.8107 148.994 13.8107C147.677 13.8107 145.866 14.3869 145.537 15.7863C145.043 17.7618 147.265 18.5026 148.747 18.9144C150.723 19.4081 152.863 19.7374 154.592 20.8075C156.979 22.2894 157.555 25.4997 156.65 27.9693C155.662 30.6856 152.698 31.7557 150.064 31.8382C146.936 32.0029 144.22 31.0149 141.997 28.7922C141.832 28.7922 141.421 28.3808 141.421 28.3808Z"
            fill="white" />
        <path
            d="M158.79 28.3808L161.26 26.1583C161.177 26.1583 162.494 27.4753 162.659 27.5575C163.235 28.0514 163.811 28.3808 164.552 28.5454C166.693 29.1216 170.562 28.9569 170.891 25.9937C171.055 24.3471 169.82 23.4417 168.421 22.8656C166.61 22.2069 164.635 21.9601 162.824 21.1368C160.766 20.2314 159.449 18.6673 159.449 16.3624C159.449 10.3533 168.01 9.36563 171.878 12.1645C172.043 12.3288 173.937 14.0576 173.854 14.0576L171.385 16.0331C170.15 14.5515 168.997 13.8107 166.363 13.8107C165.046 13.8107 163.235 14.3869 162.906 15.7863C162.412 17.7618 164.635 18.5026 166.116 18.9144C168.092 19.4081 170.232 19.7374 171.961 20.8075C174.348 22.2894 174.923 25.4997 174.019 27.9693C173.031 30.6856 170.068 31.7557 167.433 31.8382C164.305 32.0029 161.589 31.0149 159.366 28.7922C159.202 28.7922 158.79 28.3808 158.79 28.3808Z"
            fill="white" />
        <path d="M174.841 11.2587V9.11852H174.101V8.70703H176.075V9.11852H175.335V11.2587H174.841Z" fill="white" />
        <path
            d="M178.546 11.2587V9.28318L177.803 11.2587H177.64L176.9 9.28318V11.2587H176.487V8.70703H177.147L177.803 10.4358L178.462 8.70703H179.121V11.2587H178.546Z"
            fill="white" />
        <path
            d="M21.814 31.1796L19.3444 24.5943H6.00916L3.53964 31.1796H0L10.7011 3.60327H14.57L25.1889 31.1796H21.814ZM12.5123 7.55469L7.49076 21.2193H17.945L12.5123 7.55469Z"
            fill="white" />
        <path d="M30.8696 3.60327H27.4121V31.1796H30.8696V3.60327Z" fill="white" />
        <path d="M39.5121 11.6704H36.0547V31.1795H39.5121V11.6704Z" fill="white" />
        <path
            d="M42.8051 5.3319V5.00258C40.1709 4.9204 38.0307 2.78018 37.9482 0.145996H37.4542C37.3721 2.78018 35.2318 4.9204 32.5977 5.00258V5.3319C35.2318 5.41408 37.3721 7.55459 37.4542 10.1885H37.9482C38.0307 7.55459 40.1709 5.41408 42.8051 5.3319Z"
            fill="white" />
    </g>
    <defs>
        <clipPath id="clip0_123_1257">
            <rect width="180" height="41.7073" fill="white" transform="translate(0 0.14624)" />
        </clipPath>
    </defs>
</svg>