<svg width="200" height="45" viewBox="0 0 200 45" fill="none" xmlns="http://www.w3.org/2000/svg">
    <path fill-rule="evenodd" clip-rule="evenodd"
        d="M137.809 19.8258C134.256 18.3414 130.117 17.907 126.205 17.9748L136.744 6.79831C137.72 5.79349 138.271 5.1601 138.275 4.67562L138.277 1.7829C138.275 1.28356 137.754 0.93182 137.103 0.930851L116.756 0.932793C116.129 0.931824 115.609 1.27419 115.605 1.78678V5.15913C115.611 5.66365 116.132 6.00828 116.782 6.00828L127.413 6.00925L115.203 19.021C114.459 19.8562 114.446 20.7919 114.446 21.3387V24.7595C114.446 25.255 115.185 25.8215 115.894 25.5409C122.819 22.8084 131.129 23.0742 137.392 25.5115C138.159 25.8093 138.89 25.2356 138.89 24.7405V21.1427C138.827 20.6563 138.612 20.1605 137.809 19.8258ZM67.025 0.497073C63.3846 0.497073 59.9751 1.88755 58.4737 4.86683C56.74 1.88723 54.3133 0.497073 50.4416 0.497073C46.6286 0.497073 43.797 1.88755 42.2947 4.86683H42.179V1.78646C42.1403 1.35591 41.6563 1.01645 41.0537 0.993837L35.2892 0.994803C34.6287 0.994803 34.0938 1.3727 34.0938 1.84492L34.0899 25.4436C34.1373 25.8632 34.6082 26.191 35.197 26.2201H41.3872C42.0464 26.2201 42.5821 25.8412 42.5808 25.371L42.5834 12.8625C42.5834 10.1309 42.4095 6.35679 46.8595 6.35679C51.2503 6.35679 50.6729 10.2307 50.6729 12.8625L50.6785 25.3716C50.6785 25.8248 51.1682 26.1897 51.7895 26.2198H57.9727C58.6311 26.2198 59.1659 25.8409 59.1659 25.3706V12.8622C59.1659 11.5208 59.1076 9.5347 59.7442 8.34254C60.3799 7.15134 61.9401 6.40653 63.4424 6.40653C65.2335 6.40653 66.6206 6.85355 67.0824 8.44266C67.372 9.38612 67.2554 11.8686 67.2554 12.8625L67.2567 25.3716C67.2567 25.8248 67.7472 26.1897 68.3686 26.2198H74.5514C75.2106 26.2198 75.7454 25.8409 75.7454 25.3706L75.7506 10.4785C75.7506 7.94493 76.155 5.06546 74.1892 3.07971C72.4564 1.29163 69.6252 0.497073 67.025 0.497073ZM155.792 0.497073C146.836 0.497073 141.867 6.20821 141.867 13.5572C141.867 20.8581 146.779 26.7178 155.792 26.7178C164.46 26.7178 169.948 21.0061 169.948 13.8059C169.947 6.35711 164.98 0.497073 155.792 0.497073ZM155.792 21.8507C150.94 21.8507 150.997 15.6932 150.997 12.8127C150.997 9.9323 151.285 5.31481 155.85 5.31481C157.814 5.31481 159.202 5.96048 159.894 7.59869C160.704 9.48561 160.82 11.8693 160.82 13.856C160.819 16.8844 160.59 21.8507 155.792 21.8507ZM198.38 3.279C196.647 1.24286 193.931 0.497398 191.156 0.497398C186.881 0.497398 184.455 2.03774 182.723 5.26507H182.605V1.65597C182.492 1.28937 182.047 1.01418 181.506 0.994157L175.765 0.995128C175.14 0.995128 174.628 1.33459 174.574 1.76514L174.584 25.3723C174.584 25.8254 175.074 26.1904 175.696 26.2204H181.863C182.523 26.2204 183.058 25.8416 183.068 25.3713V12.6635C183.068 11.0744 183.184 9.63418 184.052 8.19396C184.745 7.05251 186.13 6.30704 187.633 6.30704C191.91 6.30704 191.505 10.0809 191.505 12.6635V25.4776C191.571 25.879 192.034 26.193 192.608 26.2201H198.813C199.424 26.2201 199.929 25.8958 200 25.4776V10.6274C200 8.34286 200 5.16559 198.38 3.279ZM108.073 17.6356V10.472C108.073 7.43655 108.362 4.64816 105.351 2.55873C102.977 0.866902 99.039 0.269043 96.0279 0.269043C90.1373 0.269043 83.564 1.90273 82.1852 7.30897C82.0391 7.88389 82.6026 8.18556 83.1092 8.27051L89.1085 8.75306C89.6698 8.73142 90.076 8.32122 90.1838 7.90779C90.6999 6.0451 92.7984 5.14589 95.1586 5.14589C96.4331 5.14589 97.8807 5.49472 98.6338 6.34096C99.5017 7.28635 99.3865 8.58058 99.3865 9.67552V10.2724C95.7961 10.5712 91.1056 10.7701 87.747 11.8654C83.8675 13.1096 81.1464 15.647 81.1464 19.3804C81.1464 24.1572 85.1998 26.5467 90.4112 26.5467C94.8125 26.5467 97.2184 25.7757 100.617 23.2043C101.74 24.4126 102.109 24.9992 104.164 26.2686C104.627 26.453 105.217 26.4336 105.627 26.161L105.641 26.1713C106.877 25.3542 109.124 23.9052 110.388 23.1175C110.893 22.8122 110.804 22.3145 110.409 21.8959C109.277 20.7347 108.073 19.7903 108.073 17.6356ZM98.2285 19.8278C97.2436 21.123 95.6804 21.9175 93.9437 21.9175C91.5692 21.9175 90.1795 20.5736 90.1795 18.5839C90.1795 14.6686 94.9082 13.9552 99.3869 13.9552V14.9513C99.3869 16.7429 99.4439 18.2348 98.2285 19.8278ZM26.9266 17.6356V10.472C26.9266 7.43655 27.2162 4.64816 24.2055 2.55873C21.8309 0.866902 17.8931 0.269043 14.8824 0.269043C8.99177 0.269043 2.4185 1.90273 1.0401 7.30897C0.893568 7.88389 1.45667 8.18556 1.96367 8.27051L7.96297 8.75306C8.52433 8.73142 8.93133 8.32122 9.03829 7.90779C9.55356 6.0451 11.6529 5.14589 14.0136 5.14589C15.2867 5.14589 16.7347 5.49472 17.4883 6.34096C18.3562 7.28635 18.2405 8.58058 18.2405 9.67552V10.2724C14.6502 10.5712 9.95969 10.7701 6.60066 11.8654C2.72158 13.1096 0 15.647 0 19.3804C0 24.1572 4.05258 26.5467 9.26484 26.5467C13.6653 26.5467 16.0725 25.7757 19.4698 23.2043C20.5938 24.4126 20.9621 24.9992 23.0184 26.2686C23.4797 26.453 24.0707 26.4336 24.4807 26.161L24.4951 26.1713C25.7304 25.3542 27.9784 23.9052 29.2421 23.1175C29.7456 22.8122 29.6569 22.3145 29.2625 21.8959C28.1315 20.7347 26.9266 19.7903 26.9266 17.6356ZM17.0826 19.8278C16.0986 21.123 14.5345 21.9175 12.7978 21.9175C10.4245 21.9175 9.03438 20.5736 9.03438 18.5839C9.03438 14.6686 13.7635 13.9552 18.2414 13.9552V14.9513C18.2414 16.7429 18.2988 18.2348 17.0826 19.8278Z"
        fill="white" />
    <path fill-rule="evenodd" clip-rule="evenodd"
        d="M122.387 32.5126C109.36 36.524 95.2025 38.463 82.3234 38.463C63.2311 38.463 44.7457 34.6618 29.7982 28.3474C28.4906 27.7951 27.5197 28.7704 28.6072 29.4825C42.4629 38.5643 60.7704 44.0191 81.1029 44.0191C95.6087 44.0191 112.456 40.7078 124.077 34.4831C125.999 33.4529 124.353 31.9075 122.387 32.5126ZM133.87 27.7272C132.604 26.5935 121.705 25.6134 115.055 29.0049C114.032 29.527 114.208 30.2447 115.342 30.1463C119.088 29.8221 127.427 29.0942 128.913 30.4758C130.4 31.8573 127.259 37.5508 125.858 40.0939C125.433 40.8621 126.345 41.1734 127.304 40.5913C133.538 36.8046 135.148 28.8742 133.87 27.7272Z"
        fill="white" />
</svg>