<svg width="214" height="54" viewBox="0 0 214 54" fill="none" xmlns="http://www.w3.org/2000/svg">
    <path
        d="M0.948242 4.0957H22.3686C22.3673 11.3352 22.3686 18.5747 22.3673 25.8142C15.2285 25.8142 8.08836 25.8142 0.948242 25.8142V4.0957Z"
        fill="white" />
    <path
        d="M22.3686 4.0957H24.5557C24.5557 11.3352 24.5544 18.5747 24.557 25.8142C31.6958 25.8142 38.8359 25.8129 45.9748 25.8142C45.9773 18.5747 45.976 11.3352 45.976 4.0957H211.807V20.9866C210.279 20.9918 208.75 20.9748 207.223 20.997C207.188 19.0365 207.219 17.0759 207.206 15.1167C205.678 15.5837 204.159 16.0807 202.623 16.5242C202.585 18.0112 202.62 19.4995 202.603 20.9866C200.344 20.9853 198.085 20.9892 195.826 20.984C195.854 19.8126 195.746 18.6321 195.912 17.4672C196.05 16.5489 196.575 15.6306 197.457 15.2758C198.57 14.8128 199.814 15.1206 200.872 15.5928C200.865 14.2506 200.882 12.9083 200.863 11.5674C198.637 10.9465 196.086 11.0678 194.111 12.3709C192.837 13.1979 191.914 14.5206 191.498 15.9867C191.007 17.6107 191.258 19.326 191.179 20.9931C190.107 20.9853 189.037 20.9748 187.968 20.9996C187.98 22.2544 187.974 23.5093 187.971 24.7628C189.045 24.785 190.12 24.7589 191.195 24.7798C191.186 30.0601 191.192 35.339 191.192 40.6193C192.736 40.6193 194.281 40.6193 195.825 40.6193C195.825 35.3377 195.823 30.0562 195.826 24.7746C198.085 24.7707 200.345 24.772 202.606 24.7733C202.612 28.14 202.599 31.5054 202.611 34.8707C202.632 36.4386 202.895 38.1148 203.919 39.3527C204.806 40.4484 206.213 40.9493 207.572 41.0511C209.004 41.1541 210.483 40.9767 211.807 40.3936V49.7502H45.976C45.976 42.5107 45.976 35.2712 45.976 28.0317C38.8359 28.0317 31.6958 28.0304 24.557 28.033C24.5544 35.2712 24.557 42.5107 24.5557 49.7502H22.3686C22.3686 42.5107 22.3699 35.2725 22.3686 28.033C15.2285 28.0291 8.08836 28.033 0.948242 28.0304V25.8142C8.08836 25.8142 15.2285 25.8142 22.3673 25.8142C22.3686 18.5747 22.3673 11.3352 22.3686 4.0957Z"
        fill="black" />
    <path
        d="M24.556 4.0957H45.9764C45.9764 11.3352 45.9776 18.5747 45.9751 25.8142C38.8362 25.8129 31.6961 25.8142 24.5573 25.8142C24.5547 18.5747 24.556 11.3352 24.556 4.0957Z"
        fill="white" />
    <path
        d="M194.111 12.3708C196.086 11.0677 198.637 10.9464 200.862 11.5673C200.882 12.9082 200.865 14.2505 200.871 15.5927C199.814 15.1205 198.57 14.8127 197.457 15.2757C196.575 15.6305 196.05 16.5489 195.912 17.4672C195.746 18.632 195.854 19.8125 195.826 20.9839C198.085 20.9891 200.344 20.9852 202.603 20.9865C202.62 19.4994 202.585 18.0111 202.622 16.5241C204.158 16.0806 205.678 15.5836 207.206 15.1166C207.219 17.0758 207.188 19.0364 207.223 20.9969C208.75 20.9747 210.278 20.9917 211.807 20.9865V24.8006C210.273 24.7367 208.738 24.7836 207.205 24.7784C207.211 26.9711 207.206 29.1638 207.208 31.3579C207.232 32.5723 207.143 33.7932 207.283 35.0037C207.368 35.7172 207.624 36.5077 208.284 36.8768C209.389 37.5043 210.792 37.2303 211.807 36.5416V40.3935C210.483 40.9766 209.003 41.154 207.572 41.051C206.213 40.9492 204.806 40.4483 203.919 39.3526C202.895 38.1147 202.631 36.4386 202.611 34.8707C202.599 31.5053 202.612 28.1399 202.606 24.7732C200.345 24.7719 198.085 24.7706 195.826 24.7745C195.823 30.0561 195.824 35.3376 195.824 40.6192C194.281 40.6192 192.736 40.6192 191.192 40.6192C191.192 35.3389 191.185 30.06 191.194 24.7797C190.12 24.7588 189.045 24.7849 187.97 24.7627C187.974 23.5092 187.979 22.2544 187.968 20.9995C189.037 20.9747 190.107 20.9852 191.179 20.993C191.257 19.3259 191.007 17.6106 191.498 15.9866C191.914 14.5205 192.837 13.1978 194.111 12.3708Z"
        fill="white" />
    <path
        d="M94.9235 12.6448C95.8575 12.5013 96.8687 12.8248 97.4875 13.5657C98.2131 14.3771 98.3469 15.6685 97.8092 16.6168C97.2148 17.6864 95.8845 18.1834 94.7254 17.9264C93.5225 17.7073 92.5203 16.5737 92.5744 15.3097C92.5396 13.9792 93.637 12.7935 94.9235 12.6448Z"
        fill="white" />
    <path
        d="M59.4204 13.2265C61.6667 13.2265 63.9116 13.2265 66.1579 13.2265C68.2549 18.6255 70.3673 24.0193 72.4669 29.4182C73.0034 30.7683 73.5051 32.134 74.0673 33.4736C76.7651 26.7272 79.5015 19.9977 82.1788 13.2422C84.3388 13.207 86.5001 13.2344 88.6615 13.2291C88.6563 22.3587 88.6589 31.4883 88.6602 40.6179C87.1009 40.614 85.543 40.631 83.985 40.6088C84.0017 33.8715 83.9837 27.1342 83.9927 20.3956C83.9953 20.093 83.985 19.7903 83.9644 19.4877C83.8731 19.6286 83.792 19.7747 83.7213 19.926C81.0441 26.8224 78.3154 33.6993 75.6536 40.6023C74.5446 40.6427 73.4344 40.6049 72.3241 40.6231C69.562 33.7267 66.8346 26.8146 64.0866 19.913C64.0146 19.7695 63.9374 19.6299 63.8537 19.4955C63.7971 22.4474 63.8447 25.4019 63.8293 28.3538C63.8306 32.4419 63.8267 36.5299 63.8306 40.6179C62.3601 40.6218 60.8896 40.6179 59.4204 40.6192C59.4191 31.4883 59.4179 22.3574 59.4204 13.2265Z"
        fill="white" />
    <path
        d="M107.673 20.9684C109.909 20.3227 112.32 20.3488 114.555 20.9892C115.015 21.1197 115.462 21.301 115.876 21.5475C115.85 23.0437 115.876 24.5412 115.862 26.0386C114.368 24.8816 112.473 24.1485 110.574 24.3912C109.067 24.5294 107.628 25.3225 106.726 26.5578C105.567 28.0892 105.3 30.1227 105.499 31.9959C105.648 33.462 106.247 34.9269 107.371 35.8987C108.539 36.9514 110.177 37.3244 111.705 37.207C113.216 37.0309 114.641 36.3826 115.862 35.4774C115.875 36.8953 115.856 38.3132 115.872 39.7311C113.979 40.8737 111.708 41.1685 109.54 41.0603C107.322 40.9416 105.111 40.0898 103.505 38.5088C101.761 36.804 100.814 34.3725 100.702 31.9372C100.589 29.4053 101.097 26.7639 102.534 24.6494C103.738 22.8454 105.621 21.5684 107.673 20.9684Z"
        fill="white" />
    <path
        d="M139.06 20.6303C141.283 20.3434 143.629 20.4712 145.692 21.4234C147.483 22.2426 148.934 23.757 149.738 25.5702C150.596 27.5007 150.805 29.6686 150.659 31.7622C150.517 33.8062 149.884 35.8542 148.623 37.4781C147.333 39.2026 145.387 40.3713 143.304 40.8057C141.524 41.1814 139.661 41.1801 137.881 40.8005C135.75 40.3387 133.778 39.0852 132.529 37.2616C131.062 35.1485 130.645 32.4614 130.832 29.9295C130.958 27.7811 131.617 25.6158 132.97 23.9305C134.452 22.043 136.725 20.929 139.06 20.6303Z"
        fill="white" />
    <path
        d="M158.278 20.6695C160.42 20.2873 162.662 20.5678 164.69 21.3465C164.692 22.7866 164.69 24.2253 164.691 25.6641C163.274 24.6767 161.544 24.1458 159.825 24.2071C158.96 24.241 158.008 24.6127 157.613 25.4476C157.299 26.2733 157.516 27.3559 158.284 27.8503C159.598 28.7412 161.165 29.1195 162.526 29.9178C163.597 30.5283 164.637 31.3266 165.18 32.4771C166.2 34.6319 165.768 37.4795 163.974 39.0865C162.262 40.7092 159.796 41.1579 157.528 41.0718C155.917 40.9662 154.299 40.644 152.818 39.9761C152.824 38.4617 152.809 36.9486 152.825 35.4355C154.071 36.3525 155.508 37.0086 157.029 37.2747C158.087 37.4495 159.239 37.4573 160.225 36.9773C161.17 36.5012 161.34 35.1407 160.779 34.3085C160.254 33.6667 159.483 33.3132 158.756 32.9662C157.391 32.344 155.957 31.8235 154.758 30.8909C153.915 30.2243 153.277 29.2852 153.027 28.226C152.657 26.6646 152.773 24.9049 153.668 23.5405C154.691 21.9504 156.468 20.9969 158.278 20.6695Z"
        fill="white" />
    <path
        d="M175.984 20.624C178.296 20.3331 180.75 20.491 182.86 21.571C184.7 22.5037 186.127 24.189 186.839 26.1378C187.397 27.6287 187.592 29.2384 187.56 30.8258C187.564 33.1973 186.932 35.6313 185.464 37.5123C184.09 39.3332 181.988 40.5163 179.769 40.8881C177.598 41.2442 175.306 41.1516 173.244 40.3285C171.154 39.495 169.418 37.794 168.538 35.6991C167.62 33.5638 167.524 31.1611 167.809 28.8797C168.109 26.5982 169.128 24.3677 170.865 22.8507C172.288 21.5841 174.12 20.8666 175.984 20.624Z"
        fill="white" />
    <path
        d="M126.235 21.288C127.514 20.5093 129.139 20.444 130.535 20.9202C130.528 22.4868 130.535 24.0534 130.531 25.62C129.618 25.0199 128.478 24.763 127.4 24.8738C126.085 25.0251 125.043 26.0491 124.502 27.2231C123.916 28.4662 123.805 29.8723 123.842 31.2315C123.842 34.3608 123.844 37.4901 123.842 40.6194C122.319 40.6194 120.797 40.6194 119.275 40.6194C119.271 34.0791 119.28 27.5374 119.271 20.9971C120.796 20.9775 122.321 20.9854 123.845 20.9932C123.839 22.1163 123.845 23.2394 123.841 24.3638C124.336 23.1416 125.074 21.9546 126.235 21.288Z"
        fill="white" />
    <path
        d="M92.9951 20.9931C94.5312 20.9866 96.0686 20.9709 97.6047 21.0009C97.5867 27.5399 97.6034 34.0803 97.597 40.6193C96.0634 40.6193 94.5299 40.6193 92.9977 40.6193C92.9938 34.0777 92.999 27.536 92.9951 20.9931Z"
        fill="white" />
    <path
        d="M140.441 24.3584C141.833 24.2658 143.315 24.665 144.316 25.6915C145.387 26.7586 145.801 28.3069 145.915 29.7835C145.998 31.3997 145.932 33.0837 145.263 34.5811C144.821 35.5907 144.01 36.4438 142.987 36.8482C141.791 37.3139 140.446 37.3413 139.211 37.0165C137.955 36.6812 136.888 35.7603 136.308 34.5876C135.562 33.0771 135.45 31.3305 135.604 29.6739C135.744 28.1673 136.261 26.6177 137.394 25.5781C138.214 24.8006 139.334 24.421 140.441 24.3584Z"
        fill="black" />
    <path
        d="M177.235 24.3623C178.543 24.2697 179.94 24.5762 180.946 25.4723C181.874 26.2524 182.387 27.4211 182.623 28.5977C182.888 29.9778 182.885 31.4061 182.661 32.7927C182.484 33.8258 182.131 34.8563 181.463 35.6741C180.791 36.4959 179.79 36.9968 178.757 37.1507C177.648 37.319 176.48 37.2381 175.443 36.7855C174.323 36.3055 173.456 35.3233 173 34.1936C172.45 32.8475 172.341 31.3565 172.45 29.9165C172.556 28.522 172.945 27.0911 173.854 26.0071C174.682 24.9949 175.953 24.4353 177.235 24.3623Z"
        fill="black" />
    <path
        d="M207.205 24.7784C208.739 24.7836 210.273 24.7366 211.807 24.8005V36.5416C210.792 37.2303 209.39 37.5042 208.285 36.8768C207.625 36.5077 207.369 35.7172 207.284 35.0037C207.143 33.7932 207.232 32.5722 207.208 31.3578C207.206 29.1638 207.212 26.9711 207.205 24.7784Z"
        fill="black" />
    <path
        d="M0.948242 28.0303C8.08836 28.0329 15.2285 28.029 22.3686 28.0329C22.3699 35.2724 22.3686 42.5106 22.3686 49.7501H0.948242V28.0303Z"
        fill="white" />
    <path
        d="M24.557 28.0329C31.6958 28.0303 38.8359 28.0316 45.976 28.0316C45.976 35.2711 45.976 42.5106 45.976 49.7501H24.5557C24.557 42.5106 24.5544 35.2711 24.557 28.0329Z"
        fill="white" />
</svg>